<svg viewBox="0 0 500 500" xmlns="http://www.w3.org/2000/svg">
  <defs></defs>
  <path fill="#feac30" d="M 449.973 117.666 C 448.026 117.353 446.81 115.089 446.323 110.876 C 446.276 110.464 445.954 110.138 445.543 110.086 L 440.703 109.406 C 440.146 109.326 439.684 108.938 439.513 108.406 C 437.553 102.039 435.546 95.619 433.493 89.146 C 430.613 80.059 426.37 71.463 420.763 63.356 C 420.43 62.876 420.246 62.929 420.213 63.516 C 417.583 106.826 393.983 148.666 363.643 178.636 C 349.116 192.989 332.02 204.773 312.353 213.986 C 314.493 209.066 316.226 205.339 317.553 202.806 C 318.246 201.486 319.293 200.396 320.693 199.536 C 354.08 179.263 378.64 152.036 394.373 117.856 C 407.36 89.643 411.58 60.199 407.033 29.526 C 406.941 28.956 407.501 28.5 408.041 28.706 C 408.143 28.745 408.236 28.807 408.313 28.886 C 431.763 52.686 446.193 85.246 449.973 117.666 Z"></path>
  <path fill="#f17315" d="M 449.973 117.666 C 450.38 121.939 450.793 126.293 451.213 130.726 C 452.763 146.886 452.043 162.656 448.973 178.726 C 447.886 177.133 447.77 175.099 448.623 172.626 C 448.802 172.116 448.356 171.608 447.82 171.712 C 447.686 171.738 447.562 171.802 447.463 171.896 C 447.156 172.189 447.04 172.593 447.113 173.106 C 447.433 175.393 447.033 177.516 445.913 179.476 C 445.72 179.816 445.48 179.849 445.193 179.576 L 444.043 178.466 C 443.185 177.635 441.767 177.89 441.263 178.966 C 437.733 186.406 434.463 193.796 430.243 200.826 C 424.49 210.413 420.66 216.546 418.753 219.226 C 391.493 257.599 355.196 284.069 309.863 298.636 C 296.963 302.776 278.713 306.376 267.103 309.856 C 259.943 312.003 253.823 315.789 248.743 321.216 C 243.503 326.809 241.483 333.236 242.683 340.496 L 242.653 341.706 C 242.646 342.139 242.83 342.246 243.203 342.026 L 250.783 337.666 C 254.35 338.006 257.823 338.119 261.203 338.006 C 264.65 337.893 267.516 338.003 269.803 338.336 C 285.923 340.706 302.573 344.776 320.573 343.336 C 329.813 342.596 340.713 342.196 348.303 340.976 C 358.11 339.403 367.613 336.759 376.813 333.046 C 387.723 328.646 396.993 324.446 405.773 317.706 C 407.54 316.346 408.966 315.326 410.053 314.646 C 411.48 313.746 412.98 312.839 414.553 311.926 L 413.583 315.756 C 412.376 316.389 411.203 316.963 410.063 317.476 C 408.856 318.029 407.863 318.806 407.083 319.806 C 388.583 343.373 366.203 362.406 339.943 376.906 C 323.13 386.186 305.066 390.286 285.753 389.206 C 269.603 388.306 257.153 385.426 242.273 384.756 C 228.146 384.123 218.396 389.519 213.023 400.946 L 209.813 408.156 C 209.553 408.743 209.696 408.866 210.243 408.526 C 212.236 407.299 213.883 406.739 215.183 406.846 C 220.656 408.173 225.856 409.583 230.783 411.076 C 238.653 413.476 246.423 417.936 253.903 421.596 C 269.323 429.129 285.63 433.113 302.823 433.546 C 304.21 433.579 306.13 433.386 308.583 432.966 C 310.49 432.633 312.433 432.469 314.413 432.476 C 288.363 454.156 252.353 455.436 222.523 441.596 C 214.163 437.716 208.133 435.536 200.363 433.446 C 200.14 433.384 199.934 433.587 199.992 433.81 C 199.997 433.829 200.004 433.848 200.013 433.866 C 204.546 443.379 211.73 451.133 221.563 457.126 C 210.55 459.859 198.87 461.333 186.523 461.546 C 150.676 462.186 119.876 451.249 94.123 428.736 C 71.113 408.626 58.713 380.476 57.803 349.746 C 56.943 320.376 68.443 292.116 87.733 270.316 C 114.323 240.276 154.553 222.096 153.093 175.496 C 153.08 175.043 153.256 174.953 153.623 175.226 C 154.936 176.219 156.246 177.549 157.553 179.216 C 170.433 195.586 177.933 215.096 176.343 235.986 C 175.67 244.939 174.92 251.956 174.093 257.036 L 172.273 260.296 C 172.046 260.703 172.156 260.836 172.603 260.696 C 182.836 257.436 191.44 251.853 198.413 243.946 C 200.86 243.253 202.833 241.779 204.333 239.526 C 209.42 231.899 215.266 222.573 221.873 211.546 C 227.853 201.566 236.013 193.883 246.353 188.496 C 263.963 179.316 278.443 171.006 284.823 151.746 C 285.12 150.852 286.267 150.601 286.923 151.286 L 292.243 156.906 C 292.415 157.092 292.656 157.203 292.913 157.216 C 293.793 157.249 294.453 156.926 294.893 156.246 C 297.86 169.626 297.206 182.529 292.933 194.956 C 291.186 200.029 288.426 205.183 284.653 210.416 C 277.233 220.686 269.313 228.856 258.883 237.096 C 248.693 245.156 239.693 250.056 230.383 257.026 C 230.144 257.195 230.178 257.559 230.444 257.681 C 230.494 257.704 230.548 257.716 230.603 257.716 C 253.963 258.206 276.573 248.696 294.363 233.836 C 301.63 227.763 307.626 221.146 312.353 213.986 C 332.02 204.773 349.116 192.989 363.643 178.636 C 393.983 148.666 417.583 106.826 420.213 63.516 C 420.246 62.929 420.43 62.876 420.763 63.356 C 426.37 71.463 430.613 80.059 433.493 89.146 C 435.546 95.619 437.553 102.039 439.513 108.406 C 439.684 108.938 440.146 109.326 440.703 109.406 L 445.543 110.086 C 445.954 110.138 446.276 110.464 446.323 110.876 C 446.81 115.089 448.026 117.353 449.973 117.666 Z M 119.693 321.836 C 122.473 331.636 127.933 341.236 130.023 350.486 C 131.773 358.236 131.403 367.636 125.393 373.606 C 121.943 377.046 116.153 378.136 112.863 373.926 C 110.033 370.306 110.793 363.926 111.103 357.746 C 111.573 348.456 103.943 341.726 95.103 339.756 C 94.816 339.689 94.746 339.783 94.893 340.036 C 102.643 353.276 93.313 365.656 92.263 376.756 C 91.196 388.129 93.953 397.783 100.533 405.716 C 108.463 415.266 119.933 421.726 132.523 422.946 C 149.353 424.566 166.953 419.856 177.923 407.146 C 191.483 391.426 195.773 369.476 186.873 350.166 C 181.363 338.196 172.663 328.596 162.563 318.516 C 154.513 310.486 146.893 299.766 144.723 288.846 C 143.63 283.333 143.65 277.703 144.783 271.956 C 146.063 265.449 149.37 259.723 154.703 254.776 C 154.826 254.671 154.79 254.472 154.637 254.418 C 154.594 254.403 154.547 254.402 154.503 254.416 C 125.933 263.086 111.713 293.746 119.693 321.836 Z"></path>
  <path fill="#feac30" d="M 246.703 130.466 C 243.836 125.133 240.916 119.893 237.943 114.746 C 235.696 110.839 232.956 107.456 229.723 104.596 C 229.446 104.363 229.021 104.517 228.957 104.873 C 228.95 104.917 228.948 104.962 228.953 105.006 C 230.22 115.099 227.26 123.606 220.073 130.526 C 212.473 137.846 205.903 143.806 205.333 154.856 C 205.32 155.046 205.354 155.242 205.433 155.426 L 209.323 164.416 C 204.703 161.683 202.12 157.539 201.573 151.986 C 200.643 142.516 205.473 136.266 211.883 130.166 C 215.37 126.853 217.446 124.719 218.113 123.766 C 225.693 112.946 224.153 102.116 214.183 93.506 C 213.757 93.127 213.9 92.43 214.441 92.25 C 214.538 92.218 214.641 92.206 214.743 92.216 C 232.853 94.096 245.773 110.676 247.773 128.016 C 247.866 128.789 247.51 129.606 246.703 130.466 Z"></path>
  <path fill="#f17315" d="M 246.703 130.466 C 247.35 138.179 245.673 145.333 241.673 151.926 C 240.8 153.379 239.396 155.119 237.463 157.146 C 233.623 161.186 229.673 166.746 223.573 167.506 C 218.36 168.159 213.61 167.129 209.323 164.416 L 205.433 155.426 C 205.354 155.242 205.32 155.046 205.333 154.856 C 205.903 143.806 212.473 137.846 220.073 130.526 C 227.26 123.606 230.22 115.099 228.953 105.006 C 228.914 104.646 229.279 104.379 229.61 104.525 C 229.651 104.543 229.689 104.567 229.723 104.596 C 232.956 107.456 235.696 110.839 237.943 114.746 C 240.916 119.893 243.836 125.133 246.703 130.466 Z"></path>
  <path fill="#feac30" d="M 294.893 156.246 C 294.453 156.926 293.793 157.249 292.913 157.216 C 292.656 157.203 292.415 157.092 292.243 156.906 L 286.923 151.286 C 286.267 150.601 285.12 150.852 284.823 151.746 C 278.443 171.006 263.963 179.316 246.353 188.496 C 236.013 193.883 227.853 201.566 221.873 211.546 C 215.266 222.573 209.42 231.899 204.333 239.526 C 202.833 241.779 200.86 243.253 198.413 243.946 C 204.813 235.056 207.253 226.406 210.833 216.966 C 213.08 211.039 215.033 206.729 216.693 204.036 C 222.133 195.216 228.033 190.506 237.883 185.036 C 246.113 180.466 254.753 175.726 262.123 169.856 C 276.253 158.616 280.483 142.596 278.313 124.976 C 278.239 124.357 278.864 123.89 279.437 124.136 C 279.556 124.187 279.661 124.266 279.743 124.366 C 287.403 133.973 292.453 144.599 294.893 156.246 Z"></path>
  <path fill="#feac30" d="M 174.093 257.036 C 174.92 251.956 175.67 244.939 176.343 235.986 C 177.933 215.096 170.433 195.586 157.553 179.216 C 156.246 177.549 154.936 176.219 153.623 175.226 C 153.256 174.953 153.08 175.043 153.093 175.496 C 154.553 222.096 114.323 240.276 87.733 270.316 C 68.443 292.116 56.943 320.376 57.803 349.746 C 58.713 380.476 71.113 408.626 94.123 428.736 C 119.876 451.249 150.676 462.186 186.523 461.546 C 198.87 461.333 210.55 459.859 221.563 457.126 C 225.916 460.073 230.993 462.593 236.793 464.686 C 237.266 464.86 237.446 465.433 237.153 465.836 C 236.723 466.436 235.983 466.666 235.243 466.446 C 231.476 465.333 228.593 465.046 226.593 465.586 C 161.123 483.176 90.183 460.496 59.223 397.146 C 47.753 373.676 45.453 346.676 50.593 321.006 C 56.153 293.196 74.383 266.376 95.273 248.516 C 110.973 235.086 129.413 220.856 137.893 201.366 C 144.54 186.099 144.293 170.276 137.153 153.896 C 137.006 153.543 136.953 153.299 136.993 153.166 C 137.13 152.708 137.645 152.487 138.063 152.706 C 176.403 172.856 196.923 215.856 174.093 257.036 Z"></path>
  <path fill="#db4605" d="M 448.973 178.726 C 445.246 199.053 437.91 218.019 426.963 235.626 C 423.863 240.599 419.853 245.903 414.933 251.536 C 408.406 259.003 402.576 265.216 397.443 270.176 C 386.163 281.096 371.943 289.726 357.373 296.536 C 339.52 304.876 320.646 309.933 300.753 311.706 C 287.023 312.926 268.733 312.646 256.663 320.646 C 250.043 325.033 245.383 331.649 242.683 340.496 C 241.483 333.236 243.503 326.809 248.743 321.216 C 253.823 315.789 259.943 312.003 267.103 309.856 C 278.713 306.376 296.963 302.776 309.863 298.636 C 355.196 284.069 391.493 257.599 418.753 219.226 C 420.66 216.546 424.49 210.413 430.243 200.826 C 434.463 193.796 437.733 186.406 441.263 178.966 C 441.767 177.89 443.185 177.635 444.043 178.466 L 445.193 179.576 C 445.48 179.849 445.72 179.816 445.913 179.476 C 447.033 177.516 447.433 175.393 447.113 173.106 C 447.04 172.593 447.156 172.189 447.463 171.896 C 447.858 171.521 448.513 171.707 448.642 172.23 C 448.674 172.361 448.668 172.498 448.623 172.626 C 447.77 175.099 447.886 177.133 448.973 178.726 Z"></path>
  <path fill="#feac30" d="M 414.553 311.926 C 412.98 312.839 411.48 313.746 410.053 314.646 C 408.966 315.326 407.54 316.346 405.773 317.706 C 396.993 324.446 387.723 328.646 376.813 333.046 C 367.613 336.759 358.11 339.403 348.303 340.976 C 340.713 342.196 329.813 342.596 320.573 343.336 C 302.573 344.776 285.923 340.706 269.803 338.336 C 267.516 338.003 264.65 337.893 261.203 338.006 C 257.823 338.119 254.35 338.006 250.783 337.666 C 265.433 331.566 278.613 334.466 295.503 336.116 C 312.223 337.749 328.89 337.326 345.503 334.846 C 361.963 332.396 378.113 325.746 392.913 318.356 C 401.033 314.296 408.343 308.036 415.663 302.456 C 416.17 302.081 416.894 302.395 416.965 303.023 C 416.977 303.124 416.969 303.227 416.943 303.326 L 414.553 311.926 Z"></path>
  <path fill="#db4605" d="M 413.583 315.756 C 410.136 324.556 405.39 333.336 399.343 342.096 C 371.333 382.736 324.863 406.286 275.263 396.726 C 259.943 393.776 245.823 389.536 229.993 391.666 C 227.446 392.013 225.096 392.803 222.943 394.036 C 219.596 395.943 216.29 398.246 213.023 400.946 C 218.396 389.519 228.146 384.123 242.273 384.756 C 257.153 385.426 269.603 388.306 285.753 389.206 C 305.066 390.286 323.13 386.186 339.943 376.906 C 366.203 362.406 388.583 343.373 407.083 319.806 C 407.863 318.806 408.856 318.029 410.063 317.476 C 411.203 316.963 412.376 316.389 413.583 315.756 Z"></path>
  <path fill="#feac30" d="M 314.413 432.476 C 312.433 432.469 310.49 432.633 308.583 432.966 C 306.13 433.386 304.21 433.579 302.823 433.546 C 285.63 433.113 269.323 429.129 253.903 421.596 C 246.423 417.936 238.653 413.476 230.783 411.076 C 225.856 409.583 220.656 408.173 215.183 406.846 C 223.97 405.293 231.9 406.113 238.973 409.306 C 250.506 414.513 261.343 418.826 271.483 422.246 C 287.923 427.786 302.933 429.186 319.623 426.076 C 320.154 425.977 320.587 426.496 320.402 427.011 C 320.363 427.12 320.298 427.218 320.213 427.296 L 314.413 432.476 Z"></path>
</svg>